<svg width="43" height="41" viewBox="0 0 43 41" fill="none" xmlns="http://www.w3.org/2000/svg"><path d="M0.839478 19.68C0.839478 10.4028 0.839474 5.76421 3.74157 2.88198C6.64376 0 11.3146 0 20.6563 0H22.3077C31.6494 0 36.3202 0 39.2224 2.88198C42.1244 5.76418 42.1244 10.4027 42.1244 19.68V21.3199C42.1244 30.5972 42.1244 35.2357 39.2224 38.1179C36.3202 40.9999 31.6494 40.9999 22.3077 40.9999H20.6563C11.3146 40.9999 6.64376 40.9999 3.74157 38.1179C0.839474 35.2357 0.839478 30.5972 0.839478 21.3199V19.68Z" fill="red"/><path d="M19.0609 23.9108V16.8986L25.1757 20.4048L19.0609 23.9108ZM32.6911 14.7786C32.4203 13.7729 31.6228 12.9809 30.6101 12.7123C28.7745 12.2236 21.4145 12.2236 21.4145 12.2236C21.4145 12.2236 14.0544 12.2236 12.2189 12.7123C11.2063 12.9809 10.4086 13.7729 10.1381 14.7786C9.64618 16.6015 9.64618 20.4046 9.64618 20.4046C9.64618 20.4046 9.64618 24.2078 10.1381 26.0307C10.4087 27.0363 11.2064 27.8282 12.2189 28.0971C14.0544 28.5855 21.4145 28.5855 21.4145 28.5855C21.4145 28.5855 28.7745 28.5855 30.6101 28.0971C31.6228 27.8282 32.4203 27.0363 32.6911 26.0307C33.1828 24.2078 33.1828 20.4046 33.1828 20.4046C33.1828 20.4046 33.1828 16.6015 32.6911 14.7786Z" fill="#fff"/></svg>