<svg width="522" height="132" viewBox="0 0 522 132" fill="none" xmlns="http://www.w3.org/2000/svg"><g filter="url(#filter0_d_301_1004)"><path d="M14.0769 0.368225L443.763 0.368225L507.343 104H14.0769V0.368225Z" fill="#F8D428"/></g><path d="M146.347 29.7202C146.347 25.281 147.822 21.5428 150.771 18.5054C153.721 15.468 157.459 13.9494 161.986 13.9494C166.484 13.9494 170.207 15.4242 173.157 18.374C176.136 21.3237 177.626 25.1058 177.626 29.7202C177.626 34.2179 176.136 37.9854 173.157 41.0227C170.178 44.0016 166.455 45.4911 161.986 45.4911C157.518 45.4911 153.779 44.0163 150.771 41.0665C147.822 38.1168 146.347 34.3347 146.347 29.7202ZM150.289 29.7202C150.289 33.1665 151.414 36.087 153.663 38.4818C155.911 40.8183 158.686 41.9865 161.986 41.9865C165.432 41.9865 168.236 40.8183 170.397 38.4818C172.588 36.1454 173.683 33.2249 173.683 29.7202C173.683 26.2156 172.558 23.2951 170.31 20.9586C168.061 18.6222 165.286 17.454 161.986 17.454C158.627 17.454 155.838 18.6076 153.619 20.9148C151.399 23.2221 150.289 26.1572 150.289 29.7202ZM187.721 28.8441H180.493V25.3394H198.454V28.8441H191.226V45.053H187.721V28.8441ZM230.085 45.053H210.284V39.7961C210.313 39.7669 211.029 39.0806 212.431 37.7371L214.84 35.3277C215.366 34.7436 216.067 34.0134 216.943 33.1373C217.936 32.0859 218.637 31.2535 219.046 30.6402L220.491 28.406C221.514 26.8581 222.025 25.2664 222.025 23.6309C222.025 21.6158 221.09 20.6082 219.221 20.6082C218.374 20.6082 217.702 20.8856 217.206 21.4405C216.709 21.9662 216.257 22.784 215.848 23.8938L210.372 21.3967C210.897 19.0895 211.978 17.2934 213.613 16.0083C215.278 14.6941 217.41 14.037 220.009 14.037C222.842 14.037 225.047 14.8401 226.624 16.4464C228.231 18.0527 229.034 20.0095 229.034 22.3167C229.034 28.1286 225.617 33.663 218.783 38.9199H230.085V45.053ZM235.888 41.2856C234.077 38.511 233.172 34.6559 233.172 29.7202C233.172 24.7845 234.063 20.944 235.844 18.1987C237.655 15.4242 240.298 14.037 243.774 14.037C247.22 14.037 249.848 15.4242 251.659 18.1987C253.47 20.9732 254.375 24.8137 254.375 29.7202C254.375 34.6851 253.484 38.5403 251.703 41.2856C249.921 44.0309 247.307 45.4035 243.861 45.4035C240.386 45.4035 237.728 44.0309 235.888 41.2856ZM240.181 29.7202C240.181 36.087 241.408 39.2704 243.861 39.2704C245.117 39.2704 246.008 38.5549 246.533 37.1238C247.088 35.6927 247.366 33.2249 247.366 29.7202C247.366 26.2156 247.088 23.7478 246.533 22.3167C246.008 20.8856 245.088 20.1701 243.774 20.1701C242.518 20.1701 241.598 20.9148 241.014 22.4043C240.459 23.8646 240.181 26.3032 240.181 29.7202ZM259.717 41.2856C257.907 38.511 257.001 34.6559 257.001 29.7202C257.001 24.7845 257.892 20.944 259.673 18.1987C261.484 15.4242 264.127 14.037 267.603 14.037C271.049 14.037 273.677 15.4242 275.488 18.1987C277.299 20.9732 278.204 24.8137 278.204 29.7202C278.204 34.6851 277.313 38.5403 275.532 41.2856C273.75 44.0309 271.137 45.4035 267.69 45.4035C264.215 45.4035 261.557 44.0309 259.717 41.2856ZM264.01 29.7202C264.01 36.087 265.237 39.2704 267.69 39.2704C268.946 39.2704 269.837 38.5549 270.363 37.1238C270.918 35.6927 271.195 33.2249 271.195 29.7202C271.195 26.2156 270.918 23.7478 270.363 22.3167C269.837 20.8856 268.917 20.1701 267.603 20.1701C266.347 20.1701 265.427 20.9148 264.843 22.4043C264.288 23.8646 264.01 26.3032 264.01 29.7202ZM283.546 41.2856C281.736 38.511 280.83 34.6559 280.83 29.7202C280.83 24.7845 281.721 20.944 283.503 18.1987C285.313 15.4242 287.956 14.037 291.432 14.037C294.878 14.037 297.507 15.4242 299.317 18.1987C301.128 20.9732 302.033 24.8137 302.033 29.7202C302.033 34.6851 301.143 38.5403 299.361 41.2856C297.58 44.0309 294.966 45.4035 291.519 45.4035C288.044 45.4035 285.386 44.0309 283.546 41.2856ZM287.84 29.7202C287.84 36.087 289.066 39.2704 291.519 39.2704C292.775 39.2704 293.666 38.5549 294.192 37.1238C294.747 35.6927 295.024 33.2249 295.024 29.7202C295.024 26.2156 294.747 23.7478 294.192 22.3167C293.666 20.8856 292.746 20.1701 291.432 20.1701C290.176 20.1701 289.256 20.9148 288.672 22.4043C288.117 23.8646 287.84 26.3032 287.84 29.7202ZM317.591 31.5602H312.948V28.7127H317.591V14.3874C318.818 14.3874 320.118 14.3728 321.49 14.3436C322.863 14.3144 324.236 14.2998 325.608 14.2998C333.172 14.2998 336.955 17.2058 336.955 23.0176C336.955 25.6461 335.991 27.7343 334.063 29.2822C332.165 30.8008 329.449 31.5602 325.915 31.5602H321.315V36.16H328.894V39.0075H321.315V45.053H317.591V39.0075H312.948V36.16H317.591V31.5602ZM325.959 17.8045C325.433 17.8045 323.885 17.8337 321.315 17.8921V28.7127H325.783C330.602 28.7127 333.012 26.9019 333.012 23.2805C333.012 19.6298 330.661 17.8045 325.959 17.8045ZM147.31 87.053V67.3394C147.456 67.3394 147.661 67.3394 147.924 67.3394C148.187 67.3102 148.566 67.2956 149.063 67.2956C149.559 67.2664 150.012 67.2518 150.421 67.2518C152.582 67.1934 153.925 67.1642 154.451 67.1642C160.117 67.1642 162.95 68.8581 162.95 72.2459C162.95 73.4142 162.585 74.4217 161.855 75.2687C161.125 76.0864 160.175 76.5829 159.007 76.7582V76.8458C162.074 77.4007 163.607 78.9486 163.607 81.4894C163.607 85.3153 160.584 87.2283 154.539 87.2283C154.247 87.2283 152.962 87.1991 150.684 87.1407C150.246 87.1407 149.764 87.1261 149.238 87.0968C148.712 87.0968 148.303 87.0822 148.011 87.053C147.719 87.053 147.486 87.053 147.31 87.053ZM155.021 78.2038H150.815V84.2493C152.918 84.3369 154.261 84.3808 154.845 84.3808C158.204 84.3808 159.883 83.3294 159.883 81.2266C159.883 79.2114 158.262 78.2038 155.021 78.2038ZM154.714 70.0117C153.867 70.0117 152.567 70.0555 150.815 70.1432V76.0134H155.24C156.437 76.0134 157.401 75.736 158.131 75.1811C158.861 74.6262 159.226 73.8814 159.226 72.9469C159.226 70.9901 157.722 70.0117 154.714 70.0117ZM190.1 67.3394H193.605V87.053H190.1V79.3866C188.581 80.3504 186.756 80.8323 184.624 80.8323C179.951 80.8323 177.615 78.3206 177.615 73.2973V67.3394H181.338V72.9031C181.338 75.9988 182.755 77.5467 185.588 77.5467C187.428 77.5467 188.932 77.1378 190.1 76.3201V67.3394ZM215.483 82.1465L216.578 84.9064C214.68 86.6296 212.212 87.4911 209.175 87.4911C205.962 87.4911 203.407 86.5565 201.508 84.6874C199.581 82.8183 198.617 80.3212 198.617 77.1962C198.617 74.2465 199.522 71.7933 201.333 69.8365C203.115 67.8797 205.597 66.9014 208.781 66.9014C211.409 66.9014 213.585 67.7483 215.308 69.4422C217.06 71.1069 217.936 73.2681 217.936 75.9258C217.936 76.7728 217.863 77.5613 217.717 78.2914H202.56C202.706 80.1314 203.392 81.577 204.619 82.6284C205.875 83.6798 207.481 84.2055 209.438 84.2055C212.008 84.2055 214.023 83.5192 215.483 82.1465ZM208.605 70.187C206.882 70.187 205.451 70.6689 204.312 71.6326C203.202 72.5964 202.545 73.8668 202.341 75.4439H214.3C214.213 73.8084 213.658 72.5234 212.636 71.5888C211.643 70.6542 210.299 70.187 208.605 70.187ZM235.351 67.3394H239.951L231.321 76.7582L240.784 87.053H235.921L227.028 76.9772L235.351 67.3394ZM226.196 87.053H222.691V67.3394H226.196V87.053ZM258.992 82.1465L260.087 84.9064C258.189 86.6296 255.721 87.4911 252.683 87.4911C249.471 87.4911 246.915 86.5565 245.017 84.6874C243.089 82.8183 242.126 80.3212 242.126 77.1962C242.126 74.2465 243.031 71.7933 244.842 69.8365C246.623 67.8797 249.106 66.9014 252.289 66.9014C254.918 66.9014 257.093 67.7483 258.816 69.4422C260.569 71.1069 261.445 73.2681 261.445 75.9258C261.445 76.7728 261.372 77.5613 261.226 78.2914H246.068C246.214 80.1314 246.901 81.577 248.127 82.6284C249.383 83.6798 250.989 84.2055 252.946 84.2055C255.516 84.2055 257.531 83.5192 258.992 82.1465ZM252.114 70.187C250.391 70.187 248.96 70.6689 247.821 71.6326C246.711 72.5964 246.054 73.8668 245.849 75.4439H257.809C257.721 73.8084 257.166 72.5234 256.144 71.5888C255.151 70.6542 253.808 70.187 252.114 70.187Z" fill="#000"/><defs><filter id="filter0_d_301_1004" x=".262" y=".368" width="520.896" height="131.262" filterUnits="userSpaceOnUse" color-interpolation-filters="sRGB"><feFlood flood-opacity="0" result="BackgroundImageFix"/><feColorMatrix in="SourceAlpha" values="0 0 0 0 0 0 0 0 0 0 0 0 0 0 0 0 0 0 127 0" result="hardAlpha"/><feOffset dy="13.815"/><feGaussianBlur stdDeviation="6.908"/><feComposite in2="hardAlpha" operator="out"/><feColorMatrix values="0 0 0 0 0 0 0 0 0 0 0 0 0 0 0 0 0 0 0.25 0"/><feBlend in2="BackgroundImageFix" result="effect1_dropShadow_301_1004"/><feBlend in="SourceGraphic" in2="effect1_dropShadow_301_1004" result="shape"/></filter></defs></svg>