<svg width="42" height="41" viewBox="0 0 42 41" fill="none" xmlns="http://www.w3.org/2000/svg"><path d="M0.312012 19.68C0.312012 10.4028 0.311999 5.76421 3.21409 2.88198C6.11633 0 10.7871 0 20.1288 0H21.7802C31.122 0 35.7928 0 38.6949 2.88198C41.597 5.76418 41.597 10.4027 41.597 19.68V21.3199C41.597 30.5972 41.597 35.2357 38.6949 38.1179C35.7928 40.9999 31.122 40.9999 21.7802 40.9999H20.1288C10.7871 40.9999 6.11633 40.9999 3.21409 38.1179C0.311999 35.2357 0.312012 30.5972 0.312012 21.3199V19.68Z" fill="#000"/><path d="M18.2018 18.3024V17.3524C17.8698 17.3003 17.5345 17.2719 17.1985 17.2671C13.9451 17.2606 11.0654 19.3539 10.0882 22.4348C9.11102 25.5157 10.2643 28.8709 12.934 30.7159C10.1328 27.7385 10.2925 23.0696 13.2906 20.2875C14.6265 19.0492 16.3747 18.3424 18.2018 18.3024Z" fill="#25F4EE"/><path d="M30.27 15.1891V14.2942C29.1797 14.2942 28.1134 13.9746 27.2057 13.3756C28.0012 14.295 29.0772 14.9317 30.27 15.1891ZM18.3822 29.0587C20.2008 29.0567 21.6955 27.6339 21.776 25.8289V9.72565H24.7382C24.6775 9.38943 24.6487 9.04828 24.6521 8.70654H20.6008V24.7936C20.5334 26.6071 19.0344 28.044 17.2072 28.0473C16.6615 28.0431 16.1234 27.9092 15.6397 27.6587C16.2759 28.534 17.2951 29.0544 18.3821 29.0587L18.3822 29.0587Z" fill="#25F4EE"/><path d="M17.1984 21.2916C15.3201 21.3013 13.8048 22.8212 13.8146 24.6868C13.8209 25.9345 14.5194 27.0772 15.631 27.6586C14.532 26.1516 14.8711 24.0443 16.3887 22.9518C16.9684 22.5348 17.6662 22.3107 18.3823 22.3119C18.7225 22.3161 19.0605 22.3691 19.3856 22.4682V18.3738C19.054 18.324 18.7181 18.298 18.3823 18.296H18.2018V21.4093C17.8746 21.3208 17.5366 21.2819 17.1984 21.2916V21.2916ZM27.2067 13.3766C26.3119 12.3651 25.8187 11.0645 25.8197 9.71802H24.7381C25.0196 11.2228 25.9125 12.5459 27.2067 13.3766H27.2067Z" fill="#FE2C55"/><path d="M30.27 15.189V18.3023C28.2518 18.2985 26.2859 17.664 24.6512 16.4887V24.6681C24.6424 28.7498 21.3084 32.0542 17.1984 32.0542C15.6722 32.0573 14.1824 31.5895 12.9351 30.7157C15.7321 33.7028 20.4378 33.8733 23.4466 31.0958C24.9598 29.6989 25.8195 27.7399 25.8196 25.6884V17.5315C27.4601 18.6986 29.4281 19.3246 31.4461 19.3214V15.3142C31.0506 15.312 30.6569 15.271 30.27 15.189V15.189Z" fill="#FE2C55"/><path d="M24.6511 24.6694V16.4899C26.2912 17.6579 28.2595 18.284 30.2777 18.2798V15.1665C29.0854 14.9161 28.0074 14.2879 27.2056 13.3766C25.912 12.5453 25.0193 11.2224 24.737 9.71802H21.7749V25.8289C21.6976 27.6932 20.115 29.1419 18.2378 29.0664C17.1972 29.0244 16.2334 28.5113 15.6222 27.6737C13.9603 26.8047 13.3222 24.7623 14.1972 23.1117C14.7823 22.0074 15.9333 21.3136 17.1897 21.3079C17.53 21.3111 17.8681 21.363 18.1931 21.4633V18.3036C14.0906 18.3726 10.8208 21.7785 10.8904 25.8526C10.9219 27.6976 11.6483 29.464 12.9264 30.8033C14.1861 31.6483 15.6778 32.0861 17.1974 32.0567C21.3086 32.0556 24.6425 28.7512 24.6512 24.6695L24.6511 24.6694Z" fill="#fff"/></svg>