<svg width="96" height="96" viewBox="0 0 96 96" fill="none" xmlns="http://www.w3.org/2000/svg"><path fill-rule="evenodd" clip-rule="evenodd" d="M35.6765 71.4759C34.4448 71.4258 34.0077 71.0821 33.1868 70.635C32.6518 70.3433 32.0498 69.4321 31.8616 68.5359L31.7876 31.2063C31.7876 29.4691 31.6001 27.382 32.1451 26.1196C32.8469 24.4941 35.077 23.1244 37.3623 24.2702L39.0975 25.2566C49.1236 31.269 59.4838 37.1484 69.5111 43.1576C70.5271 43.7666 72.0661 44.4922 72.7164 45.3959C73.4884 46.4689 73.6182 48.3259 72.9071 49.5776C72.2197 50.788 69.7331 51.9588 68.2224 52.8644L59.7178 57.8721C53.0501 61.8676 46.0945 65.7935 39.4613 69.7927C39.1615 69.9733 38.9037 70.1138 38.5971 70.2894C37.9449 70.6626 37.6012 70.9598 36.811 71.2251C36.3883 71.3668 35.9656 71.2953 35.6759 71.4747L35.6765 71.4759ZM48.2123 0.00125427H48.2173C57.6407 0.00125427 66.4313 2.78637 74.1293 7.91822C75.7988 9.03139 76.8022 9.87175 78.2967 11.042C79.4073 11.9118 82.7161 15.092 83.5609 16.1795C83.7954 16.4811 83.971 16.6937 84.215 16.9835C86.7022 19.9385 89.466 24.1686 91.0859 27.8053C92.9654 32.0253 94.4341 36.6511 94.959 41.5277C95.1234 43.056 95.2249 44.5618 95.2676 46.0399V49.217C95.1259 54.0641 94.335 58.5551 93.0193 62.4966C87.2823 79.6883 72.6286 92.1865 54.675 94.8255C53.23 95.0381 51.279 95.1967 49.3086 95.2695H44.9983C44.447 95.2444 43.9315 95.2074 43.468 95.1579C36.4755 94.4097 31.4063 93.0193 25.2736 89.8266C24.9443 89.6554 24.6352 89.4747 24.272 89.2728L21.5616 87.6084C20.1286 86.6526 16.9722 84.4182 15.7242 83.1413C15.425 82.8353 15.235 82.7431 14.944 82.4634C14.4122 81.9516 13.9619 81.4769 13.4389 80.9545L10.6507 77.8132C5.49497 71.21 2.11408 64.7217 0.582609 55.6069C0.345552 54.1952 0.1248 52.1777 0 50.1778V44.78C0.0125427 44.6715 0.0263397 44.5674 0.0407638 44.4683L0.294127 41.7077C0.364366 40.8786 0.53871 39.9392 0.666646 39.1634C1.69578 32.8996 3.98608 27.5357 7.23464 22.2063C7.57894 21.6418 9.27095 19.0756 9.62403 18.8479L11.1116 17.0355C11.3405 16.7922 11.3499 16.9552 11.5776 16.4297L12.9529 14.8004C14.12 13.6465 15.4721 12.2354 16.7621 11.2213C20.4371 8.33276 22.1887 6.98755 26.5717 4.79634C27.2704 4.44702 27.8166 4.17798 28.5535 3.8619C31.5976 2.55746 34.1733 1.69828 37.4507 0.995892C41.6399 0.0984603 44.0143 0 48.213 0L48.2123 0.00125427Z" fill="#FEFEFE"/></svg>