<svg width="42" height="41" viewBox="0 0 42 41" fill="none" xmlns="http://www.w3.org/2000/svg"><path d="M0 19.68C0 10.4028 0 5.76426 2.90202 2.88206C5.80426 0 10.4751 0 19.8168 0H21.4682C30.8099 0 35.4807 0 38.3829 2.88206C41.285 5.76426 41.285 10.4028 41.285 19.68V21.32C41.285 30.5972 41.285 35.2358 38.3829 38.1179C35.4807 41 30.8099 41 21.4682 41H19.8168C10.4751 41 5.80428 41 2.90202 38.1179C0 35.2358 0 30.5972 0 21.32V19.68H0Z" fill="#07F"/><path d="M21.5044 28.7856C12.6992 28.7856 7.67694 22.7908 7.46765 12.8154H11.8783C12.0232 20.137 15.2748 23.2383 17.8504 23.8778V12.8154H22.0036V19.13C24.547 18.8582 27.2188 15.9808 28.1202 12.8154H32.2732C31.5812 16.7161 28.6838 19.5936 26.6231 20.7765C28.6838 21.7357 31.9837 24.2455 33.2393 28.7856H28.6676C27.6856 25.7482 25.2391 23.3982 22.0036 23.0786V28.7856H21.5044H21.5044Z" fill="#fff"/></svg>