<svg width="42" height="41" viewBox="0 0 42 41" fill="none" xmlns="http://www.w3.org/2000/svg"><path fill-rule="evenodd" clip-rule="evenodd" d="M41.8879 21.7515V19.2485C41.8872 10.2582 41.8426 5.71924 38.9859 2.88206C36.129 0.0450385 31.5584 0.000706768 22.5056 0H19.9853C10.9325 0.000706768 6.36188 0.0450385 3.50499 2.88206C0.602969 5.76426 0.602966 10.4028 0.602966 19.68V21.32C0.602966 30.5974 0.602969 35.2358 3.50499 38.1179C6.40723 41 11.078 41 20.4198 41H22.0711C31.4129 41 36.0837 41 38.9859 38.1179C41.8426 35.2808 41.8873 30.7419 41.8879 21.7515L41.8879 21.7515Z" fill="url(#paint0_linear_114_3548)"/><path fill-rule="evenodd" clip-rule="evenodd" d="M9.10787 20.0185C15.7102 17.1619 20.1129 15.2785 22.3158 14.3685C28.6053 11.7706 29.9123 11.3192 30.7641 11.3044C30.9515 11.3011 31.3703 11.3473 31.6418 11.5658C31.8709 11.7504 31.9338 11.9998 31.964 12.1749C31.9942 12.35 32.0317 12.7487 32.0018 13.0603C31.661 16.6168 30.1863 25.2474 29.436 29.2307C29.1186 30.9163 28.4934 31.4813 27.8881 31.5368C26.573 31.6569 25.5742 30.6735 24.3003 29.8444C22.3072 28.5467 21.181 27.7389 19.2461 26.4726C17.01 25.0092 18.4596 24.2049 19.7338 22.8906C20.0674 22.5466 25.8622 17.3121 25.9744 16.8373C25.9884 16.7778 26.0015 16.5564 25.869 16.4395C25.7367 16.3226 25.5412 16.3626 25.4001 16.3945C25.2002 16.4395 22.0158 18.5297 15.8471 22.665C14.9432 23.2815 14.1245 23.5817 13.3909 23.5661C12.5823 23.5487 11.0267 23.112 9.87034 22.7386C8.45205 22.2808 7.32472 22.0388 7.42303 21.2611C7.47407 20.8561 8.03578 20.4418 9.10787 20.0185V20.0185Z" fill="#fff"/><defs><linearGradient id="paint0_linear_114_3548" x1=".603" y1="20.5" x2="41.888" y2="20.5" gradientUnits="userSpaceOnUse"><stop stop-color="#2AABEE"/><stop offset="1" stop-color="#229ED9"/></linearGradient></defs></svg>