<svg width="308" height="145" viewBox="0 0 308 145" fill="none" xmlns="http://www.w3.org/2000/svg"><path d="M44.3539 25.9249L79.8775 0.123586H100.07V131H72.0249V39.9474L58.9373 49.1088L44.3539 25.9249Z" fill="#fff"/><path d="M6.79444 82.2241H24.8917V100.935H35.9341V82.2241H54.2359V71.9996H35.9341V53.4934H24.8917V71.9996H6.79444V82.2241Z" fill="#fff"/><path d="M119.008 72.5164V29.3867H128.866V63.2743H139.34V29.3867H149.199V63.2743H159.673V29.3867H169.531V72.5164H119.008ZM175.076 72.5164L193.006 29.3867H201.817L219.746 72.5164H209.21L205.637 63.4591H188.57L184.996 72.5164H175.076ZM197.134 42.0175L192.267 54.2171H201.94L197.134 42.0175ZM250.837 72.5164V55.1413H235.126V72.5164H225.268V29.3867H235.126V45.8992H250.837V29.3867H260.696V72.5164H250.837ZM301.6 60.8713L305.358 68.265C304.044 69.7437 302.093 70.9555 299.505 71.9002C296.917 72.8039 294.186 73.2557 291.31 73.2557C284.615 73.2557 279.172 71.2225 274.983 67.156C270.793 63.0484 268.698 57.6469 268.698 50.9515C268.698 44.4615 270.67 39.1217 274.613 34.9319C278.556 30.7422 284.102 28.6473 291.249 28.6473C294.001 28.6473 296.548 29.0786 298.889 29.9412C301.23 30.7627 303.079 31.8307 304.434 33.1451L300.06 40.5388C297.143 38.7725 294.206 37.8894 291.249 37.8894C287.757 37.8894 284.861 39.0395 282.561 41.3398C280.302 43.64 279.172 46.8439 279.172 50.9515C279.172 54.7716 280.384 57.9139 282.808 60.3784C285.231 62.8019 288.373 64.0137 292.235 64.0137C295.685 64.0137 298.807 62.9662 301.6 60.8713Z" fill="#fff"/><path d="M119.353 110.907V85.5032C122.2 85.3572 124.779 85.2842 127.091 85.2842C129.987 85.2842 132.14 85.8682 133.552 87.0362C134.963 88.2042 135.669 89.7372 135.669 91.6353C135.669 94.1659 134.695 96.064 132.749 97.3293V97.4023C133.795 97.7917 134.659 98.4852 135.34 99.4828C136.046 100.456 136.399 101.709 136.399 103.242C136.399 105.822 135.498 107.781 133.698 109.119C131.921 110.457 129.585 111.126 126.69 111.126C123.307 111.126 120.862 111.053 119.353 110.907ZM127.456 100.651H125.193V105.432C125.728 105.578 126.385 105.651 127.164 105.651C129.427 105.651 130.559 104.751 130.559 102.95C130.559 101.417 129.524 100.651 127.456 100.651ZM127.018 90.7592C126.677 90.7592 126.069 90.8079 125.193 90.9052V95.5408H127.128C128.928 95.5408 129.829 94.7135 129.829 93.0588C129.829 92.3288 129.549 91.7691 128.989 91.3797C128.454 90.9661 127.797 90.7592 127.018 90.7592ZM161.773 110.98V85.4302H167.613V110.98H161.773ZM149.473 98.7528C149.108 98.7528 148.524 98.8137 147.721 98.9353V105.432C148.597 105.53 149.168 105.578 149.436 105.578C151.869 105.578 153.086 104.398 153.086 102.038C153.086 100.943 152.758 100.128 152.101 99.5923C151.468 99.0327 150.592 98.7528 149.473 98.7528ZM147.721 85.4302V93.4238C148.524 93.3264 149.278 93.2778 149.984 93.2778C153.05 93.2778 155.361 94.0443 156.919 95.5773C158.5 97.1103 159.291 99.2152 159.291 101.892C159.291 104.666 158.367 106.892 156.517 108.571C154.668 110.226 152.076 111.053 148.743 111.053C147.769 111.053 146.48 111.041 144.874 111.017C143.292 110.993 142.294 110.98 141.881 110.98V85.4302H147.721ZM179.285 110.98H174.175V85.4302H180.015V101.308L191.33 85.4302H196.44V110.98H190.6V95.1028L179.285 110.98ZM203.012 110.98V85.4302H217.612V90.9052H208.852V110.98H203.012ZM227.458 110.98H221.618V85.4302C222.056 85.4302 223.285 85.418 225.305 85.3937C227.349 85.3693 228.724 85.3572 229.429 85.3572C233.055 85.3572 235.683 86.1602 237.313 87.7662C238.944 89.3479 239.759 91.3676 239.759 93.8253C239.759 96.21 238.895 98.2418 237.167 99.9208C235.44 101.576 233.152 102.403 230.305 102.403C229.016 102.403 228.067 102.366 227.458 102.293V110.98ZM230.013 90.8322C229.916 90.8322 229.064 90.8566 227.458 90.9052V96.7453C228.383 96.867 229.271 96.9278 230.123 96.9278C231.048 96.9278 231.851 96.6845 232.532 96.1978C233.213 95.7111 233.554 94.9081 233.554 93.7888C233.554 91.8178 232.374 90.8322 230.013 90.8322ZM238.865 110.98L249.486 85.4302H254.706L265.327 110.98H259.086L256.969 105.615H246.858L244.741 110.98H238.865ZM251.932 92.9128L249.048 100.14H254.779L251.932 92.9128ZM263.718 90.9052V85.4302H284.888V90.9052H277.223V110.98H271.383V90.9052H263.718ZM296.116 98.7528C295.751 98.7528 295.167 98.8137 294.364 98.9353V105.432C295.24 105.53 295.812 105.578 296.079 105.578C298.756 105.578 300.094 104.398 300.094 102.038C300.094 99.8478 298.768 98.7528 296.116 98.7528ZM294.364 85.4302V93.4238C295.167 93.3264 295.921 93.2778 296.627 93.2778C299.863 93.2778 302.284 94.0443 303.89 95.5773C305.496 97.086 306.299 99.1908 306.299 101.892C306.299 104.69 305.35 106.917 303.452 108.571C301.554 110.226 298.866 111.053 295.386 111.053C294.413 111.053 293.123 111.041 291.517 111.017C289.935 110.993 288.937 110.98 288.524 110.98V85.4302H294.364Z" fill="#fff"/></svg>