<svg width="277" height="277" viewBox="0 0 277 277" fill="none" xmlns="http://www.w3.org/2000/svg"><g filter="url(#filter0_d_317_1005)"><path d="M-55.3958 198.766L188.832 25.6201L266.729 58.9028L-13.6364 257.669L-55.3958 198.766Z" fill="#F8D428"/></g><path d="M70.2302 137.829C74.063 143.08 80.5049 143.933 85.5097 140.28C90.5145 136.628 91.5761 130.109 87.8333 124.981C84.0005 119.73 77.5586 118.877 72.5538 122.529C67.4257 126.272 66.5773 132.824 70.2302 137.829ZM72.4491 136.209C69.516 132.191 70.2459 127.237 73.9933 124.502C77.6914 121.803 82.6813 122.582 85.6144 126.6C88.4575 130.496 88.0148 135.429 84.0702 138.308C80.372 141.007 75.3102 140.129 72.4491 136.209ZM89.0871 123.31L93.155 120.341L99.8129 129.463L101.785 128.024L95.1273 118.902L99.1953 115.932L97.7557 113.96L87.6475 121.338L89.0871 123.31ZM112.511 120.195L110.351 117.237C110.403 116.997 110.524 116.317 110.714 115.196C110.908 114.047 111.03 113.265 111.08 112.851C111.13 112.436 111.225 111.737 111.364 110.754C111.491 109.755 111.543 108.998 111.521 108.485C111.5 107.972 111.465 107.355 111.417 106.634C111.374 105.885 111.254 105.254 111.057 104.743C110.877 104.22 110.631 103.744 110.319 103.317C109.491 102.183 108.551 102 107.499 102.767C107.006 103.127 106.74 103.574 106.701 104.106C106.649 104.622 106.732 105.254 106.951 106.002L102.843 106.846C102.199 105.377 102.067 103.936 102.448 102.525C102.833 101.085 103.765 99.8251 105.244 98.7454C106.838 97.5818 108.409 97.128 109.956 97.3842C111.52 97.6284 112.776 98.3997 113.724 99.6982C116.111 102.969 116.461 107.487 114.774 113.253L121.135 108.61L123.654 112.062L112.511 120.195ZM119.094 102.165C117.078 99.4037 116.002 96.8765 115.865 94.5833C115.744 92.2781 116.662 90.4117 118.618 88.9842C120.574 87.5566 122.623 87.2577 124.765 88.0873C126.924 88.905 129.011 90.6944 131.026 93.4557C133.042 96.217 134.118 98.7442 134.255 101.037C134.408 103.319 133.507 105.173 131.551 106.601C129.579 108.04 127.513 108.351 125.355 107.533C123.184 106.699 121.097 104.91 119.094 102.165ZM123.038 99.2859C125.653 102.869 127.651 104.157 129.032 103.149C129.739 102.633 129.952 101.873 129.672 100.868C129.397 99.8346 128.533 98.3236 127.082 96.3348C125.63 94.346 124.46 93.0712 123.572 92.5102C122.672 91.9327 121.86 91.9079 121.137 92.4357C120.43 92.9516 120.213 93.7404 120.484 94.8021C120.771 95.8518 121.623 97.3464 123.038 99.2859ZM132.504 92.377C130.489 89.6158 129.413 87.0885 129.275 84.7953C129.155 82.4901 130.073 80.6238 132.028 79.1962C133.984 77.7687 136.033 77.4697 138.176 78.2994C140.334 79.117 142.421 80.9065 144.437 83.6678C146.452 86.429 147.528 88.9563 147.665 91.2495C147.819 93.5307 146.918 95.385 144.962 96.8126C142.989 98.2521 140.924 98.5631 138.765 97.7454C136.594 96.9113 134.507 95.1219 132.504 92.377ZM136.449 89.4979C139.064 93.081 141.062 94.3687 142.442 93.361C143.149 92.8452 143.363 92.0848 143.083 91.08C142.807 90.0467 141.944 88.5356 140.492 86.5469C139.04 84.5581 137.871 83.2832 136.983 82.7222C136.082 82.1448 135.271 82.12 134.548 82.6478C133.841 83.1636 133.623 83.9524 133.894 85.0141C134.182 86.0639 135.033 87.5585 136.449 89.4979ZM145.915 82.5891C143.899 79.8278 142.823 77.3006 142.686 75.0074C142.565 72.7022 143.483 70.8358 145.439 69.4083C147.395 67.9807 149.444 67.6818 151.586 68.5114C153.745 69.3291 155.832 71.1185 157.847 73.8798C159.863 76.6411 160.939 79.1683 161.076 81.4615C161.229 83.7427 160.328 85.5971 158.372 87.0246C156.4 88.4642 154.334 88.7751 152.176 87.9575C150.005 87.1234 147.918 85.3339 145.915 82.5891ZM149.859 79.71C152.474 83.2931 154.472 84.5807 155.853 83.5731C156.56 83.0572 156.773 82.2969 156.493 81.292C156.218 80.2587 155.354 78.7477 153.903 76.7589C152.451 74.7701 151.281 73.4953 150.393 72.9343C149.493 72.3568 148.681 72.332 147.958 72.8598C147.251 73.3757 147.034 74.1645 147.305 75.2262C147.592 76.2759 148.444 77.7705 149.859 79.71ZM164.745 70.4322L167.359 68.5248L169.248 71.1134L166.635 73.0208L167.804 74.6234L170.418 72.716L172.901 76.1182L174.997 74.5887L172.513 71.1864L176.778 68.0734L175.609 66.4709L171.344 69.5839L169.454 66.9952L172.043 65.1058C176.259 62.0288 176.78 58.5496 174.747 55.7637C172.785 53.0764 169.711 51.9192 164.781 55.518C163.696 56.3098 161.266 58.1585 160.305 58.8603L166.189 66.9222L163.576 68.8296L164.745 70.4322ZM166.417 57.3464C169.154 55.3491 171.142 55.4848 172.636 57.5311C174.148 59.6021 173.339 61.7039 170.799 63.5573L168.285 65.3927L163.84 59.3031C164.636 58.6847 165.727 57.8503 166.417 57.3464ZM137.155 139.349C138.166 138.611 139.915 137.486 141.295 136.478C144.747 133.959 145.571 131.619 144.041 129.524C143.034 128.143 141.554 127.825 139.545 128.8L139.509 128.751C140.697 127.582 140.828 125.898 139.875 124.592C138.417 122.595 136.111 122.955 133.005 125.223C131.402 126.392 130.019 127.553 129.058 128.254L137.155 139.349ZM137.86 131.202C139.635 129.906 140.992 129.747 141.838 130.905C142.684 132.064 142.123 133.418 140.298 134.75C139.411 135.398 138.586 135.924 137.976 136.331L135.493 132.929L137.86 131.202ZM134.322 126.717C135.752 125.674 137.185 125.308 138.067 126.516C138.859 127.6 138.39 128.925 137.083 129.879L134.593 131.696L132.182 128.393C132.657 128.008 133.435 127.365 134.322 126.717ZM155.111 109.239L153.139 110.678L156.828 115.732C156.586 116.438 155.902 117.466 154.792 118.276C153.288 119.374 151.789 119.183 150.493 117.408L148.208 114.277L146.112 115.807L148.56 119.16C150.647 122.02 152.937 122.465 155.599 120.521C156.832 119.621 157.69 118.467 158.087 117.458L161.236 121.773L163.209 120.333L155.111 109.239ZM173.506 108.585C173.277 109.773 172.379 111.183 170.95 112.227C168.78 113.811 166.352 113.694 164.65 111.724L173.18 105.498C173.002 105.099 172.727 104.619 172.331 104.077C170.1 101.019 166.332 100.671 163.472 102.759C159.823 105.422 159.624 109.497 161.981 112.727C164.536 116.228 168.552 116.811 172.151 114.184C173.63 113.105 174.891 111.466 175.256 109.689L173.506 108.585ZM164.723 104.68C166.646 103.276 168.657 103.547 170.087 105.299L163.357 110.211C162.337 108.348 162.701 106.155 164.723 104.68ZM181.194 90.2016L178.605 92.0911L177.88 100.934L187.023 102.951L189.76 100.954L180.206 99.0472L181.194 90.2016ZM179.578 108.386L181.55 106.946L173.453 95.8519L171.48 97.2914L179.578 108.386ZM197.992 90.7138C197.763 91.9013 196.865 93.3121 195.435 94.3558C193.266 95.9393 190.837 95.8222 189.135 93.8526L197.666 87.6265C197.488 87.2274 197.213 86.7476 196.817 86.2052C194.586 83.1481 190.817 82.8 187.958 84.8873C184.309 87.5505 184.109 91.626 186.466 94.8557C189.022 98.3566 193.037 98.94 196.637 96.3128C198.116 95.2331 199.377 93.5951 199.742 91.8172L197.992 90.7138ZM189.209 86.8083C191.132 85.4048 193.143 85.6751 194.573 87.4276L187.842 92.34C186.823 90.4769 187.187 88.2839 189.209 86.8083Z" fill="#000"/><defs><filter id="filter0_d_317_1005" x="-65.021" y="25.62" width="341.376" height="251.3" filterUnits="userSpaceOnUse" color-interpolation-filters="sRGB"><feFlood flood-opacity="0" result="BackgroundImageFix"/><feColorMatrix in="SourceAlpha" values="0 0 0 0 0 0 0 0 0 0 0 0 0 0 0 0 0 0 127 0" result="hardAlpha"/><feOffset dy="9.625"/><feGaussianBlur stdDeviation="4.813"/><feComposite in2="hardAlpha" operator="out"/><feColorMatrix values="0 0 0 0 0 0 0 0 0 0 0 0 0 0 0 0 0 0 0.25 0"/><feBlend in2="BackgroundImageFix" result="effect1_dropShadow_317_1005"/><feBlend in="SourceGraphic" in2="effect1_dropShadow_317_1005" result="shape"/></filter></defs></svg>