<svg width="42" height="41" viewBox="0 0 42 41" fill="none" xmlns="http://www.w3.org/2000/svg"><path d="M0.714905 19.6799C0.714905 10.4027 0.714911 5.76418 3.617 2.88198C6.51924 0 11.19 0 20.5317 0H22.1831C31.5249 0 36.1957 0 39.0979 2.88198C42 5.76418 41.9999 10.4027 41.9999 19.6799V21.3199C41.9999 30.5972 42 35.2357 39.0979 38.1179C36.1957 40.9999 31.5249 40.9999 22.1831 40.9999H20.5317C11.19 40.9999 6.51924 40.9999 3.617 38.1179C0.714911 35.2357 0.714905 30.5972 0.714905 21.3199V19.6799Z" fill="#000"/><path fill-rule="evenodd" clip-rule="evenodd" d="M20.9121 6.51636C20.8414 12.1785 20.4526 15.3609 18.316 17.4845C16.1793 19.6083 12.9775 19.9949 7.28094 20.0651V20.9022C12.9775 20.9726 16.1793 21.3591 18.316 23.4827C20.4526 25.6063 20.8414 28.7889 20.9121 34.4509H21.7543C21.8252 28.7889 22.214 25.6063 24.3504 23.4827C26.4871 21.3591 29.6888 20.9726 35.3854 20.9022V20.0651C29.6888 19.9947 26.4871 19.6083 24.3504 17.4845C22.214 15.3609 21.8251 12.1785 21.7543 6.51636H20.9121Z" fill="#fff"/></svg>