<svg width="279" height="271" viewBox="0 0 279 271" fill="none" xmlns="http://www.w3.org/2000/svg"><g filter="url(#filter0_d_206_2)"><path d="M-44.4741 192.31L191.821 24.788L268.544 58.9029L-2.71477 251.213L-44.4741 192.31Z" fill="#F8D428"/></g><path d="M65.3714 153.87C68.5272 151.566 69.8782 147.671 67.5569 144.49C66.1174 142.518 63.8156 141.59 61.4321 142.726L61.3781 142.652C62.4248 140.565 62.0508 138.344 60.9891 136.889C58.8478 133.956 55.6205 133.779 52.6374 135.957C50.3938 137.594 49.1593 140.045 49.0982 142.394L51.3386 142.875C51.4743 140.887 52.1539 139.333 53.855 138.091C55.6301 136.795 57.6699 136.743 59.0375 138.616C60.2971 140.342 59.7555 142.551 58.3009 143.613L56.4519 144.962L57.8914 146.935L59.8884 145.477C62.0333 143.912 64.0758 144.121 65.3174 145.822C66.8829 147.967 66.0521 150.35 63.8086 151.987C62.4033 153.013 59.9424 153.524 57.8793 153.027L57.7462 155.278C59.6661 155.993 62.7334 155.795 65.3714 153.87ZM68.7915 137.581C69.3371 136.465 69.8988 135.526 71.2548 134.536C73.449 132.934 74.8132 134.131 76.3247 136.201C75.1892 136.199 73.9045 136.872 73.0416 137.502C70.6502 139.247 69.7681 141.818 71.4236 144.086C72.9891 146.231 75.3054 146.506 77.3271 145.03C79.1515 143.699 79.6538 142.161 79.7077 140.836L80.7513 142.266L82.625 140.899L77.6586 134.094C75.5533 131.21 73.2382 130.368 70.0825 132.671C68.7018 133.679 67.6584 135.045 67.1221 136.381L68.7915 137.581ZM76.7218 142.751C75.4398 143.687 74.221 143.518 73.4472 142.458C72.5115 141.176 73.299 139.77 74.4824 138.906C75.444 138.205 76.4621 137.839 77.5123 137.829L78.538 139.234C78.4568 140.313 78.1764 141.69 76.7218 142.751ZM93.0816 116.262L90.4929 118.152L89.7673 126.995L98.9108 129.012L101.647 127.015L92.0935 125.108L93.0816 116.262ZM91.4653 134.447L93.4376 133.007L85.3402 121.913L83.3678 123.352L91.4653 134.447ZM97.9479 116.3C98.4936 115.184 99.0552 114.245 100.411 113.256C102.605 111.654 103.97 112.85 105.481 114.921C104.346 114.918 103.061 115.592 102.198 116.221C99.8066 117.967 98.9245 120.538 100.58 122.806C102.146 124.951 104.462 125.225 106.484 123.75C108.308 122.418 108.81 120.88 108.864 119.556L109.908 120.986L111.781 119.618L106.815 112.814C104.71 109.929 102.395 109.087 99.2389 111.39C97.8583 112.398 96.8148 113.764 96.2785 115.1L97.9479 116.3ZM105.878 121.471C104.596 122.406 103.377 122.238 102.604 121.178C101.668 119.896 102.455 118.49 103.639 117.626C104.6 116.924 105.619 116.559 106.669 116.548L107.694 117.953C107.613 119.033 107.333 120.409 105.878 121.471ZM121.286 95.6767L118.845 97.4582L118.929 105.597L127.239 108.337L129.679 106.555L121.172 103.96L121.286 95.6767ZM120.656 113.141L122.628 111.702L114.531 100.607L112.559 102.047L120.656 113.141ZM113.727 109.394L113.679 118.233L116.095 116.47L115.97 107.757L108.269 105.178L105.803 106.977L113.727 109.394ZM132.196 108.875L134.045 107.526L132.065 104.814L141.04 98.2637L143.019 100.976L144.868 99.6261L141.539 95.065L139.69 96.4146L132.942 87.1693L125.373 92.6936L127.342 95.7534C129.358 98.9298 130.303 101.83 130.247 103.306L128.867 104.314L132.196 108.875ZM129.798 95.1321L128.572 93.1931L132.319 90.4579L137.718 97.8542L132.343 101.777C132.357 100.709 131.621 98.1473 129.798 95.1321ZM147.021 76.8934L144.778 78.5309L147.342 87.4287C147.577 88.1644 147.818 88.8574 148.066 89.5078C147.43 89.1027 146.837 88.7042 146.177 88.3171L137.776 83.6413L135.409 85.3688L148.832 92.5763L149.017 93.348C149.573 95.6629 149.423 96.9064 148.486 97.5902C148.042 97.9141 147.479 98.0227 146.983 98.1201L147.44 100.092C148.319 100.054 149.201 99.8644 150.039 99.2526C151.617 98.101 151.951 96.3837 150.681 91.2268L147.021 76.8934ZM157.145 86.5084L159.241 84.9789L155.822 80.2946L158.214 78.5492C160.664 81.1818 164.303 81.6626 167.434 79.3773C170.861 76.8761 171.428 72.6832 168.999 69.3549C166.569 66.0266 162.453 65.2526 158.976 67.7898C155.944 70.0031 155.245 73.4983 156.799 76.5589L154.383 78.3223L151.144 73.8846L149.048 75.4141L157.145 86.5084ZM159.753 76.1028C158.08 73.8099 158.419 71.2197 160.49 69.7082C162.61 68.1607 165.124 68.7062 166.78 70.9744C168.471 73.2919 168.114 75.8574 166.068 77.351C164.022 78.8445 161.463 78.4449 159.753 76.1028ZM66.3795 168.66L68.5806 161.839L71.2432 159.895L83.8393 177.153L80.1412 179.853L71.3779 167.846L70.5339 170.314L66.3795 168.66ZM80.5106 166.357C78.4952 163.596 77.419 161.069 77.2819 158.776C77.1613 156.47 78.079 154.604 80.0349 153.176C81.9908 151.749 84.0398 151.45 86.1821 152.28C88.3408 153.097 90.4278 154.887 92.4432 157.648C94.4585 160.409 95.5347 162.936 95.6718 165.23C95.8253 167.511 94.9241 169.365 92.9682 170.793C90.9958 172.232 88.9303 172.543 86.7716 171.726C84.601 170.892 82.5139 169.102 80.5106 166.357ZM84.4552 163.478C87.0704 167.061 89.0683 168.349 90.4489 167.341C91.1557 166.825 91.3691 166.065 91.0891 165.06C90.8136 164.027 89.9501 162.516 88.4985 160.527C87.047 158.538 85.8771 157.263 84.989 156.702C84.0889 156.125 83.2773 156.1 82.5541 156.628C81.8473 157.144 81.6295 157.933 81.9006 158.994C82.1881 160.044 83.0397 161.539 84.4552 163.478ZM93.9211 156.569C91.9057 153.808 90.8295 151.281 90.6925 148.988C90.5718 146.682 91.4895 144.816 93.4454 143.388C95.4013 141.961 97.4504 141.662 99.5926 142.492C101.751 143.309 103.838 145.099 105.854 147.86C107.869 150.621 108.945 153.149 109.082 155.442C109.236 157.723 108.335 159.577 106.379 161.005C104.406 162.444 102.341 162.755 100.182 161.938C98.0115 161.104 95.9244 159.314 93.9211 156.569ZM97.8657 153.69C100.481 157.273 102.479 158.561 103.859 157.553C104.566 157.037 104.78 156.277 104.5 155.272C104.224 154.239 103.361 152.728 101.909 150.739C100.457 148.75 99.2876 147.475 98.3995 146.914C97.4994 146.337 96.6878 146.312 95.9646 146.84C95.2578 147.356 95.04 148.145 95.3111 149.206C95.5986 150.256 96.4502 151.751 97.8657 153.69ZM107.332 146.781C105.316 144.02 104.24 141.493 104.103 139.2C103.982 136.894 104.9 135.028 106.856 133.601C108.812 132.173 110.861 131.874 113.003 132.704C115.162 133.521 117.249 135.311 119.264 138.072C121.28 140.833 122.356 143.361 122.493 145.654C122.646 147.935 121.745 149.789 119.789 151.217C117.817 152.656 115.751 152.967 113.593 152.15C111.422 151.316 109.335 149.526 107.332 146.781ZM111.276 143.902C113.891 147.485 115.889 148.773 117.27 147.765C117.977 147.249 118.19 146.489 117.91 145.484C117.635 144.451 116.771 142.94 115.32 140.951C113.868 138.962 112.698 137.688 111.81 137.126C110.91 136.549 110.098 136.524 109.375 137.052C108.668 137.568 108.451 138.357 108.722 139.418C109.009 140.468 109.861 141.963 111.276 143.902ZM126.162 134.624L128.776 132.717L130.665 135.306L128.052 137.213L129.221 138.816L131.835 136.908L134.318 140.31L136.414 138.781L133.93 135.379L138.195 132.266L137.026 130.663L132.761 133.776L130.871 131.187L133.46 129.298C137.676 126.221 138.197 122.742 136.164 119.956C134.202 117.269 131.128 116.111 126.198 119.71C125.113 120.502 122.683 122.351 121.722 123.053L127.606 131.114L124.993 133.022L126.162 134.624ZM127.834 121.539C130.571 119.541 132.559 119.677 134.053 121.723C135.564 123.794 134.756 125.896 132.216 127.75L129.702 129.585L125.257 123.495C126.053 122.877 127.144 122.043 127.834 121.539ZM153.332 126.433C154.342 125.695 156.091 124.57 157.472 123.562C160.923 121.043 161.747 118.704 160.218 116.608C159.21 115.227 157.731 114.909 155.722 115.884L155.686 115.835C156.873 114.666 157.005 112.982 156.051 111.676C154.594 109.679 152.287 110.04 149.181 112.307C147.578 113.476 146.196 114.637 145.234 115.339L153.332 126.433ZM154.036 118.286C155.811 116.99 157.168 116.831 158.014 117.989C158.86 119.148 158.299 120.502 156.475 121.834C155.587 122.482 154.762 123.008 154.152 123.415L151.669 120.013L154.036 118.286ZM150.498 113.801C151.928 112.758 153.362 112.392 154.243 113.6C155.035 114.685 154.566 116.009 153.259 116.963L150.769 118.78L148.358 115.477C148.833 115.092 149.611 114.449 150.498 113.801ZM171.287 96.323L169.315 97.7625L173.004 102.817C172.763 103.522 172.078 104.551 170.968 105.36C169.465 106.458 167.965 106.268 166.67 104.492L164.384 101.361L162.289 102.891L164.736 106.244C166.823 109.104 169.113 109.549 171.776 107.605C173.008 106.706 173.866 105.551 174.264 104.542L177.413 108.857L179.385 107.417L171.287 96.323ZM189.682 95.6693C189.453 96.8568 188.556 98.2676 187.126 99.3113C184.956 100.895 182.528 100.778 180.826 98.8081L189.356 92.582C189.178 92.1829 188.904 91.7031 188.508 91.1607C186.276 88.1036 182.508 87.7554 179.648 89.8428C175.999 92.506 175.8 96.5815 178.157 99.8112C180.712 103.312 184.728 103.895 188.327 101.268C189.807 100.189 191.067 98.5506 191.432 96.7726L189.682 95.6693ZM180.899 91.7638C182.822 90.3603 184.833 90.6306 186.264 92.3831L179.533 97.2955C178.513 95.4324 178.878 93.2394 180.899 91.7638ZM197.37 77.2858L194.782 79.1752L194.056 88.018L203.2 90.0356L205.936 88.0382L196.382 86.1313L197.37 77.2858ZM195.754 95.4699L197.726 94.0304L189.629 82.936L187.657 84.3756L195.754 95.4699ZM214.168 77.7979C213.939 78.9854 213.041 80.3962 211.611 81.4399C209.442 83.0234 207.014 82.9063 205.312 80.9367L213.842 74.7107C213.664 74.3115 213.389 73.8318 212.993 73.2894C210.762 70.2322 206.994 69.8841 204.134 71.9714C200.485 74.6346 200.286 78.7102 202.643 81.9398C205.198 85.4407 209.214 86.0241 212.813 83.3969C214.292 82.3173 215.553 80.6792 215.918 78.9013L214.168 77.7979ZM205.385 73.8925C207.308 72.4889 209.319 72.7593 210.749 74.5117L204.019 79.4242C202.999 77.5611 203.363 75.368 205.385 73.8925Z" fill="#000"/><defs><filter id="filter0_d_206_2" x="-54.1" y="24.788" width="332.269" height="245.676" filterUnits="userSpaceOnUse" color-interpolation-filters="sRGB"><feFlood flood-opacity="0" result="BackgroundImageFix"/><feColorMatrix in="SourceAlpha" values="0 0 0 0 0 0 0 0 0 0 0 0 0 0 0 0 0 0 127 0" result="hardAlpha"/><feOffset dy="9.625"/><feGaussianBlur stdDeviation="4.813"/><feComposite in2="hardAlpha" operator="out"/><feColorMatrix values="0 0 0 0 0 0 0 0 0 0 0 0 0 0 0 0 0 0 0.25 0"/><feBlend in2="BackgroundImageFix" result="effect1_dropShadow_206_2"/><feBlend in="SourceGraphic" in2="effect1_dropShadow_206_2" result="shape"/></filter></defs></svg>