<svg width="522" height="132" viewBox="0 0 522 132" fill="none" xmlns="http://www.w3.org/2000/svg"><g filter="url(#filter0_d_306_1004)"><path d="M14.0769 0.368225L443.763 0.368225L507.343 104H14.0769V0.368225Z" fill="#F8D428"/></g><path d="M155.941 44.4911C161.548 44.4911 166.411 41.1179 166.411 35.4667C166.411 31.962 164.527 28.9393 160.803 28.2384V28.1069C163.782 26.5737 165.228 23.6823 165.228 21.0977C165.228 15.8845 161.636 12.9494 156.335 12.9494C152.348 12.9494 148.844 14.7455 146.785 17.4178L148.975 19.871C150.815 17.6806 152.918 16.454 155.941 16.454C159.095 16.454 161.504 18.1187 161.504 21.4481C161.504 24.5147 159.007 26.6175 156.422 26.6175H153.137V30.1221H156.685C160.497 30.1221 162.687 32.0935 162.687 35.1162C162.687 38.9275 159.708 40.9865 155.722 40.9865C153.225 40.9865 149.939 39.497 147.968 37.1752L145.909 39.6722C147.529 42.1255 151.253 44.4911 155.941 44.4911ZM173.688 28.5012C175.265 27.6689 176.711 27.0555 179.121 27.0555C183.019 27.0555 183.589 29.5964 183.589 33.2763C182.275 32.3125 180.216 32.0058 178.682 32.0058C174.433 32.0058 171.235 34.2401 171.235 38.2704C171.235 42.0817 173.688 44.3597 177.281 44.3597C180.522 44.3597 182.406 43.0016 183.589 41.5122V44.053H186.918V31.962C186.918 26.8365 184.947 23.9014 179.34 23.9014C176.886 23.9014 174.521 24.6023 172.768 25.6975L173.688 28.5012ZM178.507 41.2055C176.229 41.2055 174.959 39.9789 174.959 38.0952C174.959 35.8171 177.062 34.8534 179.164 34.8534C180.873 34.8534 182.362 35.2914 183.589 36.1676V38.6647C182.581 39.8475 181.092 41.2055 178.507 41.2055ZM219.887 24.3394H215.287L206.964 33.9772L215.857 44.053H220.719L211.257 33.7582L219.887 24.3394ZM202.627 44.053H206.131V24.3394H202.627V44.053ZM225.496 28.5012C227.073 27.6689 228.519 27.0555 230.929 27.0555C234.827 27.0555 235.397 29.5964 235.397 33.2763C234.083 32.3125 232.024 32.0058 230.491 32.0058C226.241 32.0058 223.043 34.2401 223.043 38.2704C223.043 42.0817 225.496 44.3597 229.089 44.3597C232.33 44.3597 234.214 43.0016 235.397 41.5122V44.053H238.726V31.962C238.726 26.8365 236.755 23.9014 231.148 23.9014C228.694 23.9014 226.329 24.6023 224.576 25.6975L225.496 28.5012ZM230.315 41.2055C228.037 41.2055 226.767 39.9789 226.767 38.0952C226.767 35.8171 228.87 34.8534 230.972 34.8534C232.681 34.8534 234.17 35.2914 235.397 36.1676V38.6647C234.389 39.8475 232.9 41.2055 230.315 41.2055ZM270.004 24.3394H265.667L258.876 33.8458L266.192 44.053H270.529L262.863 33.8458L270.004 24.3394ZM254.496 44.053H258V24.3394H254.496V44.053ZM249.633 33.8458L242.098 44.053H246.391L253.619 33.8458L246.873 24.3394H242.492L249.633 33.8458ZM271.483 48.8719H274.769V44.053H290.715V48.8719H294.001V40.7674H290.715V24.3394H277.266L276.959 29.5526C276.609 34.941 275.251 39.1027 273.937 40.7674H271.483V48.8719ZM280.333 30.9106L280.552 27.625H287.211V40.7674H277.66C278.58 39.5408 279.895 35.9486 280.333 30.9106ZM315.732 24.3394H311.746L307.19 36.8247C306.839 37.8761 306.533 38.8837 306.27 39.8475C305.875 38.8399 305.525 37.8761 305.087 36.8685L299.304 24.3394H295.099L304.561 44.053L304.123 45.1044C302.809 48.2586 301.582 49.5728 299.918 49.5728C299.129 49.5728 298.384 49.2224 297.727 48.9157L296.588 51.588C297.64 52.2889 298.822 52.8146 300.312 52.8146C303.116 52.8146 304.956 51.1061 307.847 44.053L315.732 24.3394ZM319.334 44.053H323.057V35.7295H327.307C327.92 40.8551 331.731 44.4911 337.295 44.4911C343.384 44.4911 347.59 40.1103 347.59 34.1962C347.59 28.2822 343.472 23.9014 337.295 23.9014C331.907 23.9014 328.139 27.3622 327.351 32.2249H323.057V24.3394H319.334V44.053ZM331.162 34.1962C331.162 30.1221 333.747 27.406 337.426 27.406C341.194 27.406 343.647 30.1659 343.647 34.1962C343.647 38.3142 341.063 40.9865 337.426 40.9865C333.79 40.9865 331.162 38.358 331.162 34.1962ZM144.594 62.4329L152.918 56.3874H157.649V87.053H151.078V65.7185L148.011 67.8651L144.594 62.4329ZM162.925 71.7202C162.925 66.8137 163.816 62.9732 165.598 60.1987C167.408 57.4242 170.051 56.037 173.527 56.037C177.002 56.037 179.631 57.4242 181.412 60.1987C183.223 62.9732 184.128 66.8137 184.128 71.7202C184.128 76.6267 183.238 80.4672 181.456 83.2417C179.704 86.0163 177.09 87.4035 173.614 87.4035C170.11 87.4035 167.452 86.0163 165.641 83.2417C163.831 80.438 162.925 76.5975 162.925 71.7202ZM169.935 71.7202C169.935 78.087 171.161 81.2704 173.614 81.2704C174.87 81.2704 175.761 80.5695 176.287 79.1676C176.842 77.7365 177.119 75.2541 177.119 71.7202C177.119 68.1864 176.842 65.7185 176.287 64.3167C175.732 62.8856 174.812 62.1701 173.527 62.1701C172.271 62.1701 171.351 62.9002 170.767 64.3605C170.212 65.8208 169.935 68.274 169.935 71.7202ZM186.754 71.7202C186.754 66.8137 187.645 62.9732 189.427 60.1987C191.237 57.4242 193.88 56.037 197.356 56.037C200.831 56.037 203.46 57.4242 205.241 60.1987C207.052 62.9732 207.957 66.8137 207.957 71.7202C207.957 76.6267 207.067 80.4672 205.285 83.2417C203.533 86.0163 200.919 87.4035 197.444 87.4035C193.939 87.4035 191.281 86.0163 189.47 83.2417C187.66 80.438 186.754 76.5975 186.754 71.7202ZM193.764 71.7202C193.764 78.087 194.99 81.2704 197.444 81.2704C198.699 81.2704 199.59 80.5695 200.116 79.1676C200.671 77.7365 200.948 75.2541 200.948 71.7202C200.948 68.1864 200.671 65.7185 200.116 64.3167C199.561 62.8856 198.641 62.1701 197.356 62.1701C196.1 62.1701 195.18 62.9002 194.596 64.3605C194.041 65.8208 193.764 68.274 193.764 71.7202ZM210.584 71.7202C210.584 66.8137 211.474 62.9732 213.256 60.1987C215.067 57.4242 217.71 56.037 221.185 56.037C224.661 56.037 227.289 57.4242 229.071 60.1987C230.881 62.9732 231.787 66.8137 231.787 71.7202C231.787 76.6267 230.896 80.4672 229.114 83.2417C227.362 86.0163 224.748 87.4035 221.273 87.4035C217.768 87.4035 215.11 86.0163 213.3 83.2417C211.489 80.438 210.584 76.5975 210.584 71.7202ZM217.593 71.7202C217.593 78.087 218.819 81.2704 221.273 81.2704C222.529 81.2704 223.419 80.5695 223.945 79.1676C224.5 77.7365 224.777 75.2541 224.777 71.7202C224.777 68.1864 224.5 65.7185 223.945 64.3167C223.39 62.8856 222.47 62.1701 221.185 62.1701C219.929 62.1701 219.009 62.9002 218.425 64.3605C217.87 65.8208 217.593 68.274 217.593 71.7202ZM242.701 73.5602H247.345V78.16H242.701V81.0075H247.345V87.053H251.068V81.0075H258.647V78.16H251.068V73.5602H255.668C263.159 73.5602 266.708 69.9679 266.708 65.0176C266.708 60.2425 264.123 56.2998 255.361 56.2998C253.434 56.2998 249.053 56.3874 247.345 56.3874V70.7127H242.701V73.5602ZM255.712 59.8045C260.575 59.8045 262.765 61.6444 262.765 65.2805C262.765 68.9603 260.049 70.7127 255.537 70.7127H251.068V59.8921C252.514 59.8483 254.485 59.8045 255.712 59.8045ZM281.13 87.053C282.926 87.053 285.905 87.2283 288.358 87.2283C294.492 87.2283 297.427 85.2131 297.427 81.4894C297.427 79.0362 295.981 77.4153 292.827 76.8458V76.7582C295.192 76.4077 296.77 74.5678 296.77 72.2459C296.77 68.6975 293.791 67.1642 288.271 67.1642C285.423 67.1642 282.839 67.3394 281.13 67.3394V87.053ZM288.84 78.2038C291.995 78.2038 293.703 79.1676 293.703 81.2266C293.703 83.2856 291.907 84.3808 288.665 84.3808C287.088 84.3808 285.686 84.2931 284.635 84.2493V78.2038H288.84ZM288.534 70.0117C291.075 70.0117 293.046 70.8003 293.046 72.9469C293.046 74.8744 291.381 76.0134 289.059 76.0134H284.635V70.1432C285.511 70.0993 286.957 70.0117 288.534 70.0117ZM327.424 67.3394H323.92V76.3201C323.043 76.9334 321.379 77.5467 319.407 77.5467C316.735 77.5467 315.158 76.0572 315.158 72.9031V67.3394H311.434V73.2973C311.434 78.3791 313.712 80.8323 318.444 80.8323C320.634 80.8323 322.605 80.219 323.92 79.3866V87.053H327.424V67.3394ZM349.303 82.1465C348.032 83.3294 345.798 84.2055 343.257 84.2055C339.402 84.2055 336.686 82.0151 336.38 78.2914H351.537C351.669 77.6781 351.756 76.8896 351.756 75.9258C351.756 70.4936 347.682 66.9014 342.6 66.9014C336.117 66.9014 332.437 71.4574 332.437 77.1962C332.437 83.417 336.599 87.4911 342.995 87.4911C345.623 87.4911 348.471 86.6588 350.398 84.9064L349.303 82.1465ZM342.425 70.187C345.842 70.187 347.945 72.2021 348.12 75.4439H336.16C336.555 72.4212 338.833 70.187 342.425 70.187ZM373.771 67.3394H369.171L360.848 76.9772L369.741 87.053H374.603L365.141 76.7582L373.771 67.3394ZM356.511 87.053H360.015V67.3394H356.511V87.053ZM392.811 82.1465C391.541 83.3294 389.307 84.2055 386.766 84.2055C382.911 84.2055 380.195 82.0151 379.888 78.2914H395.046C395.177 77.6781 395.265 76.8896 395.265 75.9258C395.265 70.4936 391.191 66.9014 386.109 66.9014C379.625 66.9014 375.945 71.4574 375.945 77.1962C375.945 83.417 380.107 87.4911 386.503 87.4911C389.132 87.4911 391.979 86.6588 393.907 84.9064L392.811 82.1465ZM385.934 70.187C389.351 70.187 391.453 72.2021 391.629 75.4439H379.669C380.063 72.4212 382.341 70.187 385.934 70.187Z" fill="#000"/><defs><filter id="filter0_d_306_1004" x=".262" y=".368" width="520.896" height="131.262" filterUnits="userSpaceOnUse" color-interpolation-filters="sRGB"><feFlood flood-opacity="0" result="BackgroundImageFix"/><feColorMatrix in="SourceAlpha" values="0 0 0 0 0 0 0 0 0 0 0 0 0 0 0 0 0 0 127 0" result="hardAlpha"/><feOffset dy="13.815"/><feGaussianBlur stdDeviation="6.908"/><feComposite in2="hardAlpha" operator="out"/><feColorMatrix values="0 0 0 0 0 0 0 0 0 0 0 0 0 0 0 0 0 0 0.25 0"/><feBlend in2="BackgroundImageFix" result="effect1_dropShadow_306_1004"/><feBlend in="SourceGraphic" in2="effect1_dropShadow_306_1004" result="shape"/></filter></defs></svg>