<svg width="43" height="41" viewBox="0 0 43 41" fill="none" xmlns="http://www.w3.org/2000/svg"><path d="M0.966309 19.68C0.966309 10.4028 0.966305 5.76421 3.8684 2.88206C6.77059 0 11.4414 0 20.7831 0H22.4345C31.7763 0 36.447 0 39.3493 2.88206C42.2513 5.76421 42.2513 10.4028 42.2513 19.68V21.32C42.2513 30.5972 42.2513 35.2357 39.3493 38.1179C36.447 41 31.7763 41 22.4345 41H20.7831C11.4414 41 6.77059 41 3.8684 38.1179C0.966305 35.2357 0.966309 30.5972 0.966309 21.32V19.68Z" fill="#EE8208"/><path d="M21.5991 12.3351C23.0417 12.3351 24.2114 13.4967 24.2114 14.9294C24.2114 16.3621 23.0417 17.5236 21.5991 17.5236C20.1564 17.5236 18.9868 16.3622 18.9868 14.9294C18.9868 13.4967 20.1564 12.3351 21.5991 12.3351ZM21.5991 21.1828C25.0691 21.1828 27.8959 18.3755 27.8959 14.9294C27.8959 11.4833 25.0691 8.67603 21.5991 8.67603C18.129 8.67603 15.3022 11.4833 15.3022 14.9294C15.3022 18.3755 18.129 21.1828 21.5991 21.1828Z" fill="#fff"/><path d="M24.153 26.2745C25.4398 25.984 26.6679 25.4808 27.8179 24.7643C28.6759 24.2223 28.9487 23.0993 28.4029 22.2282C27.8569 21.3764 26.7263 21.1052 25.8491 21.6474C23.2757 23.2542 19.9421 23.2542 17.3688 21.6474C16.511 21.1052 15.3608 21.3569 14.8149 22.2282C14.2692 23.0801 14.5225 24.2222 15.3998 24.7643C16.5304 25.4808 17.7782 25.984 19.0648 26.2745L15.5363 29.7787C14.8149 30.495 14.8149 31.6567 15.5363 32.3729C15.9068 32.7213 16.3745 32.9151 16.8425 32.9151C17.3103 32.9151 17.7976 32.7408 18.1486 32.3729L21.6186 28.9269L25.0887 32.3729C25.8102 33.0892 26.9797 33.0892 27.701 32.3729C28.4225 31.6567 28.4225 30.495 27.701 29.7787L24.153 26.2745Z" fill="#fff"/></svg>