<svg width="277" height="277" viewBox="0 0 277 277" fill="none" xmlns="http://www.w3.org/2000/svg"><g filter="url(#filter0_d_208_8)"><path d="M-55.3958 198.766L188.832 25.6201L266.729 58.9028L-13.6364 257.669L-55.3958 198.766Z" fill="#F8D428"/></g><path d="M43.7208 167.821C46.8765 165.518 48.2276 161.622 45.9063 158.442C44.4667 156.469 42.165 155.542 39.7815 156.677L39.7275 156.603C40.7742 154.517 40.4001 152.296 39.3385 150.841C37.1971 147.907 33.9699 147.731 30.9867 149.908C28.7432 151.546 27.5086 153.996 27.4475 156.346L29.6879 156.827C29.8237 154.838 30.5033 153.284 32.2044 152.042C33.9795 150.747 36.0193 150.694 37.3868 152.568C38.6464 154.294 38.1049 156.503 36.6503 157.564L34.8012 158.914L36.2408 160.886L38.2378 159.429C40.3827 157.863 42.4251 158.073 43.6667 159.774C45.2322 161.919 44.4015 164.301 42.158 165.939C40.7527 166.964 38.2918 167.476 36.2287 166.979L36.0956 169.23C38.0155 169.945 41.0828 169.747 43.7208 167.821ZM47.1409 151.532C47.6865 150.416 48.2482 149.477 49.6042 148.488C51.7984 146.886 53.1626 148.082 54.6741 150.153C53.5386 150.15 52.2539 150.824 51.391 151.453C48.9995 153.199 48.1175 155.77 49.773 158.038C51.3385 160.183 53.6548 160.457 55.6765 158.982C57.5009 157.65 58.0032 156.112 58.057 154.788L59.1007 156.218L60.9744 154.85L56.008 148.046C53.9026 145.161 51.5876 144.319 48.4318 146.622C47.0512 147.63 46.0078 148.996 45.4715 150.332L47.1409 151.532ZM55.0712 156.703C53.7892 157.638 52.5703 157.47 51.7966 156.41C50.8609 155.128 51.6484 153.722 52.8318 152.858C53.7933 152.156 54.8115 151.791 55.8617 151.78L56.8874 153.185C56.8062 154.265 56.5258 155.641 55.0712 156.703ZM71.4309 130.214L68.8422 132.103L68.1167 140.946L77.2602 142.964L79.9968 140.966L70.4428 139.059L71.4309 130.214ZM69.8147 148.398L71.787 146.959L63.6895 135.864L61.7172 137.304L69.8147 148.398ZM76.2973 130.252C76.8429 129.136 77.4046 128.197 78.7606 127.207C80.9548 125.606 82.319 126.802 83.8305 128.873C82.695 128.87 81.4103 129.543 80.5474 130.173C78.1559 131.918 77.2739 134.489 78.9294 136.758C80.4949 138.902 82.8112 139.177 84.8329 137.701C86.6573 136.37 87.1596 134.832 87.2134 133.508L88.2571 134.937L90.1308 133.57L85.1644 126.765C83.059 123.881 80.744 123.039 77.5883 125.342C76.2076 126.35 75.1642 127.716 74.6279 129.052L76.2973 130.252ZM84.2276 135.422C82.9456 136.358 81.7268 136.19 80.953 135.129C80.0173 133.847 80.8048 132.441 81.9882 131.578C82.9497 130.876 83.9679 130.51 85.0181 130.5L86.0438 131.905C85.9626 132.985 85.6822 134.361 84.2276 135.422ZM99.6355 109.628L97.1947 111.41L97.2781 119.549L105.588 122.288L108.029 120.507L99.5216 117.911L99.6355 109.628ZM99.0054 127.093L100.978 125.653L92.8802 114.559L90.9079 115.998L99.0054 127.093ZM92.0761 123.346L92.0282 132.185L94.4443 130.422L94.3196 121.708L86.6181 119.129L84.1527 120.929L92.0761 123.346ZM110.545 122.827L112.394 121.477L110.415 118.765L119.389 112.215L121.368 114.927L123.217 113.578L119.888 109.017L118.039 110.366L111.291 101.121L103.723 106.645L105.691 109.705C107.707 112.881 108.653 115.781 108.597 117.258L107.216 118.266L110.545 122.827ZM108.148 109.084L106.921 107.145L110.669 104.409L116.067 111.806L110.692 115.728C110.706 114.66 109.97 112.099 108.148 109.084ZM123.384 109.299L126.959 106.69C130.436 104.153 130.112 101.328 128.691 99.3802C127.251 97.4079 124.915 96.2786 121.513 98.7618L119.689 100.093L117.259 96.7651L115.287 98.2046L123.384 109.299ZM133.69 101.777L135.662 100.338L127.565 89.2434L125.592 90.683L133.69 101.777ZM122.493 100.881C124.391 99.4952 125.677 99.6524 126.649 100.984C127.603 102.29 127.409 103.527 125.437 104.967L124.007 106.01L121.038 101.942L122.493 100.881ZM145.939 88.6045C145.71 89.792 144.813 91.2028 143.383 92.2465C141.213 93.83 138.785 93.7129 137.083 91.7433L145.613 85.5173C145.435 85.1181 145.161 84.6383 144.765 84.096C142.534 81.0388 138.765 80.6907 135.905 82.778C132.257 85.4412 132.057 89.5167 134.414 92.7464C136.969 96.2473 140.985 96.8307 144.585 94.2035C146.064 93.1239 147.324 91.4858 147.689 89.7079L145.939 88.6045ZM137.156 84.6991C139.079 83.2955 141.09 83.5659 142.521 85.3183L135.79 90.2308C134.77 88.3677 135.135 86.1746 137.156 84.6991ZM55.3348 196.107L53.1755 193.149C53.2274 192.909 53.3482 192.229 53.5378 191.108C53.7318 189.959 53.8539 189.177 53.9041 188.763C53.9543 188.348 54.0488 187.649 54.1878 186.666C54.3147 185.667 54.3673 184.91 54.3455 184.397C54.3237 183.884 54.289 183.267 54.2414 182.546C54.1982 181.797 54.0782 181.166 53.8814 180.655C53.7009 180.132 53.4548 179.656 53.1429 179.229C52.3151 178.095 51.3753 177.912 50.3234 178.679C49.8303 179.039 49.564 179.486 49.5245 180.018C49.4731 180.535 49.5564 181.166 49.7746 181.914L45.6672 182.758C45.0229 181.289 44.891 179.848 45.2716 178.437C45.6566 176.997 46.5888 175.737 48.068 174.657C49.6623 173.494 51.2332 173.04 52.7805 173.296C54.3443 173.54 55.6 174.312 56.5477 175.61C58.935 178.881 59.2852 183.399 57.5985 189.165L63.9593 184.522L66.4785 187.974L55.3348 196.107ZM61.9176 178.077C59.9023 175.316 58.826 172.789 58.689 170.495C58.5684 168.19 59.486 166.324 61.4419 164.896C63.3978 163.469 65.4469 163.17 67.5892 163.999C69.7478 164.817 71.8349 166.607 73.8502 169.368C75.8656 172.129 76.9418 174.656 77.0788 176.949C77.2323 179.231 76.3311 181.085 74.3752 182.513C72.4029 183.952 70.3374 184.263 68.1787 183.445C66.008 182.611 63.921 180.822 61.9176 178.077ZM65.8623 175.198C68.4775 178.781 70.4754 180.069 71.856 179.061C72.5628 178.545 72.7761 177.785 72.4962 176.78C72.2206 175.747 71.3571 174.236 69.9056 172.247C68.454 170.258 67.2842 168.983 66.3961 168.422C65.496 167.845 64.6843 167.82 63.9612 168.348C63.2544 168.864 63.0366 169.652 63.3077 170.714C63.5952 171.764 64.4467 173.258 65.8623 175.198ZM75.3281 168.289C73.3128 165.528 72.2366 163.001 72.0995 160.707C71.9789 158.402 72.8966 156.536 74.8524 155.108C76.8083 153.681 78.8574 153.382 80.9997 154.211C83.1583 155.029 85.2454 156.819 87.2607 159.58C89.2761 162.341 90.3523 164.868 90.4893 167.162C90.6428 169.443 89.7416 171.297 87.7857 172.725C85.8134 174.164 83.7479 174.475 81.5892 173.657C79.4185 172.823 77.3315 171.034 75.3281 168.289ZM79.2728 165.41C81.888 168.993 83.8859 170.281 85.2665 169.273C85.9733 168.757 86.1867 167.997 85.9067 166.992C85.6312 165.959 84.7676 164.448 83.3161 162.459C81.8645 160.47 80.6947 159.195 79.8066 158.634C78.9065 158.057 78.0948 158.032 77.3717 158.56C76.6649 159.076 76.4471 159.864 76.7182 160.926C77.0057 161.976 77.8572 163.471 79.2728 165.41ZM88.7386 158.501C86.7233 155.74 85.6471 153.213 85.51 150.919C85.3894 148.614 86.3071 146.748 88.263 145.32C90.2189 143.893 92.2679 143.594 94.4102 144.423C96.5688 145.241 98.6559 147.031 100.671 149.792C102.687 152.553 103.763 155.08 103.9 157.374C104.053 159.655 103.152 161.509 101.196 162.937C99.2239 164.376 97.1584 164.687 94.9997 163.87C92.829 163.035 90.742 161.246 88.7386 158.501ZM92.6833 155.622C95.2985 159.205 97.2964 160.493 98.677 159.485C99.3838 158.969 99.5972 158.209 99.3172 157.204C99.0417 156.171 98.1781 154.66 96.7266 152.671C95.275 150.682 94.1052 149.407 93.2171 148.846C92.317 148.269 91.5054 148.244 90.7822 148.772C90.0754 149.288 89.8576 150.077 90.1287 151.138C90.4162 152.188 91.2677 153.683 92.6833 155.622ZM107.569 146.344L110.183 144.437L112.072 147.025L109.459 148.933L110.628 150.535L113.242 148.628L115.725 152.03L117.821 150.501L115.337 147.098L119.603 143.985L118.433 142.383L114.168 145.496L112.278 142.907L114.867 141.018C119.083 137.941 119.604 134.462 117.571 131.676C115.61 128.988 112.535 127.831 107.605 131.43C106.52 132.222 104.09 134.071 103.129 134.772L109.013 142.834L106.4 144.742L107.569 146.344ZM109.241 133.258C111.978 131.261 113.966 131.397 115.46 133.443C116.972 135.514 116.163 137.616 113.623 139.469L111.109 141.305L106.664 135.215C107.46 134.597 108.551 133.762 109.241 133.258ZM134.739 138.153C135.75 137.415 137.498 136.29 138.879 135.282C142.33 132.763 143.154 130.423 141.625 128.328C140.617 126.947 139.138 126.629 137.129 127.604L137.093 127.554C138.28 126.386 138.412 124.702 137.458 123.396C136.001 121.399 133.694 121.759 130.588 124.027C128.985 125.196 127.603 126.357 126.641 127.058L134.739 138.153ZM135.443 130.006C137.218 128.71 138.575 128.551 139.421 129.709C140.267 130.868 139.706 132.222 137.882 133.554C136.994 134.202 136.169 134.728 135.559 135.135L133.076 131.733L135.443 130.006ZM131.905 125.521C133.335 124.478 134.769 124.112 135.65 125.32C136.442 126.404 135.973 127.729 134.667 128.683L132.176 130.5L129.765 127.197C130.24 126.812 131.018 126.169 131.905 125.521ZM152.695 108.043L150.722 109.482L154.411 114.536C154.17 115.241 153.485 116.27 152.375 117.08C150.872 118.178 149.372 117.987 148.077 116.212L145.791 113.081L143.696 114.611L146.143 117.964C148.23 120.824 150.52 121.269 153.183 119.325C154.415 118.425 155.273 117.27 155.671 116.262L158.82 120.577L160.792 119.137L152.695 108.043ZM171.089 107.389C170.86 108.577 169.963 109.987 168.533 111.031C166.363 112.615 163.935 112.498 162.233 110.528L170.763 104.302C170.585 103.903 170.311 103.423 169.915 102.881C167.684 99.8234 163.915 99.4753 161.055 101.563C157.406 104.226 157.207 108.301 159.564 111.531C162.119 115.032 166.135 115.615 169.735 112.988C171.214 111.908 172.474 110.27 172.839 108.492L171.089 107.389ZM162.306 103.484C164.229 102.08 166.24 102.35 167.671 104.103L160.94 109.015C159.92 107.152 160.285 104.959 162.306 103.484ZM178.777 89.0056L176.189 90.895L175.463 99.7378L184.607 101.755L187.343 99.7581L177.789 97.8511L178.777 89.0056ZM177.161 107.19L179.134 105.75L171.036 94.6558L169.064 96.0954L177.161 107.19ZM195.575 89.5177C195.346 90.7052 194.448 92.116 193.019 93.1597C190.849 94.7432 188.421 94.6262 186.719 92.6565L195.249 86.4305C195.071 86.0313 194.796 85.5516 194.4 85.0092C192.169 81.9521 188.401 81.6039 185.541 83.6912C181.892 86.3544 181.693 90.43 184.05 93.6597C186.605 97.1605 190.621 97.7439 194.22 95.1167C195.699 94.0371 196.96 92.399 197.325 90.6211L195.575 89.5177ZM186.792 85.6123C188.715 84.2087 190.726 84.4791 192.156 86.2315L185.426 91.144C184.406 89.2809 184.77 87.0878 186.792 85.6123Z" fill="#000"/><defs><filter id="filter0_d_208_8" x="-65.021" y="25.62" width="341.376" height="251.3" filterUnits="userSpaceOnUse" color-interpolation-filters="sRGB"><feFlood flood-opacity="0" result="BackgroundImageFix"/><feColorMatrix in="SourceAlpha" values="0 0 0 0 0 0 0 0 0 0 0 0 0 0 0 0 0 0 127 0" result="hardAlpha"/><feOffset dy="9.625"/><feGaussianBlur stdDeviation="4.813"/><feComposite in2="hardAlpha" operator="out"/><feColorMatrix values="0 0 0 0 0 0 0 0 0 0 0 0 0 0 0 0 0 0 0.25 0"/><feBlend in2="BackgroundImageFix" result="effect1_dropShadow_208_8"/><feBlend in="SourceGraphic" in2="effect1_dropShadow_208_8" result="shape"/></filter></defs></svg>